<svg width="16" height="16" viewBox="0 0 16 16" fill="none" xmlns="http://www.w3.org/2000/svg">
<mask id="mask0_36_296" style="mask-type:luminance" maskUnits="userSpaceOnUse" x="2" y="0" width="12" height="16">
<path d="M13.6363 0H2V16H13.6363V0Z" fill="white"/>
</mask>
<g mask="url(#mask0_36_296)">
<path d="M9.63633 3.99999L11.83 4.41455L13.6363 3.99999L9.63633 0L9.08453 1.89636L9.63633 3.99999Z" fill="#56368A"/>
<path d="M9.63635 3.99999V0H3.09091C2.48818 0 2 0.488181 2 1.09091V14.9091C2 15.5118 2.48818 16 3.09091 16H12.5455C13.1482 16 13.6363 15.5118 13.6363 14.9091V3.99999H9.63635Z" fill="#7248B9"/>
<path d="M5.09095 11.5444C4.79002 11.5444 4.54547 11.2998 4.54547 10.9989C4.54547 10.698 4.79002 10.4535 5.09095 10.4535C5.39185 10.4535 5.6364 10.698 5.6364 10.9989C5.6364 11.2998 5.39185 11.5444 5.09095 11.5444ZM5.09095 9.36254C4.79002 9.36254 4.54547 9.11799 4.54547 8.81709C4.54547 8.51619 4.79002 8.27164 5.09095 8.27164C5.39185 8.27164 5.6364 8.51619 5.6364 8.81709C5.6364 9.11799 5.39185 9.36254 5.09095 9.36254ZM5.09095 7.18074C4.79002 7.18074 4.54547 6.93619 4.54547 6.63529C4.54547 6.33439 4.79002 6.08984 5.09095 6.08984C5.39185 6.08984 5.6364 6.33439 5.6364 6.63529C5.6364 6.93619 5.39185 7.18074 5.09095 7.18074ZM11.0909 11.4535H6.54545V10.5444H11.0909V11.4535ZM11.0909 9.27164H6.54545V8.36254H11.0909V9.27164ZM11.0909 7.08984H6.54545V6.18074H11.0909V7.08984Z" fill="white"/>
</g>
</svg>
