<svg width="16" height="16" viewBox="0 0 16 16" fill="none" xmlns="http://www.w3.org/2000/svg">
<path d="M8.00057 3.99999C9.10528 3.99999 10 3.10413 10 1.99942C10 0.894719 9.10528 0 8.00057 0C6.89586 0 6 0.894719 6 1.99942C6 3.10413 6.89586 3.99999 8.00057 3.99999Z" fill="#2A2B2D"/>
<path d="M5.80001 6.64999V15.4045C5.80001 15.7334 6.06663 16 6.39553 16C6.68664 16 6.93509 15.7895 6.98295 15.5024L7.72875 11.0275C7.77982 10.7212 8.22021 10.7212 8.27127 11.0275L9.01708 15.5024C9.06494 15.7895 9.31339 16 9.6045 16C9.9334 16 10.2 15.7334 10.2 15.4045V6.64999L13.9892 6.16533C14.2812 6.12797 14.5 5.87943 14.5 5.58502C14.5 5.26192 14.2381 4.99999 13.915 4.99999H2.08503C1.76193 4.99999 1.5 5.26192 1.5 5.58502C1.5 5.87943 1.71878 6.12797 2.01081 6.16532L5.80001 6.64999Z" fill="#2A2B2D"/>
<zoom style="selected" value="|:#FFFFFF|:#FFFFFF"/>
<zoom style="dark" value="|:#FFFFFF|:#FFFFFF"/>
<zoom style="selected_dark" value="|:#FFFFFF|:#FFFFFF"/>
</svg>
