<svg width="16" height="16" viewBox="0 0 16 16" fill="none" xmlns="http://www.w3.org/2000/svg">
<path d="M4 9.25C4.69036 9.25 5.25 8.69036 5.25 8C5.25 7.30964 4.69036 6.75 4 6.75C3.30964 6.75 2.75 7.30964 2.75 8C2.75 8.69036 3.30964 9.25 4 9.25Z" fill="#F7F9FA"/>
<path d="M8 9.25C8.69036 9.25 9.25 8.69036 9.25 8C9.25 7.30964 8.69036 6.75 8 6.75C7.30964 6.75 6.75 7.30964 6.75 8C6.75 8.69036 7.30964 9.25 8 9.25Z" fill="#F7F9FA"/>
<path d="M13.25 8C13.25 8.69036 12.6904 9.25 12 9.25C11.3096 9.25 10.75 8.69036 10.75 8C10.75 7.30964 11.3096 6.75 12 6.75C12.6904 6.75 13.25 7.30964 13.25 8Z" fill="#F7F9FA"/>
<path d="M16 8C16 12.4183 12.4183 16 8 16C3.58172 16 0 12.4183 0 8C0 3.58172 3.58172 0 8 0C12.4183 0 16 3.58172 16 8ZM15 8C15 4.13401 11.866 1 8 1C4.13401 1 1 4.13401 1 8C1 11.866 4.13401 15 8 15C11.866 15 15 11.866 15 8Z" fill="#F7F9FA"/>
<zoom style="hover" value=":none|:#B6BAC0|:#B6BAC0|:#B6BAC0|:#B6BAC0"/>
</svg>
