<svg width="17" height="16" viewBox="0 0 17 16" fill="none" xmlns="http://www.w3.org/2000/svg">
<path d="M8.50439 2.05274C8.73982 2.15447 8.89227 2.3864 8.89227 2.64287V13.3571C8.89227 13.6136 8.73982 13.8455 8.50439 13.9472C8.26896 14.049 7.99558 14.001 7.80882 13.8252L4.35163 10.5714H3.03565C2.76994 10.5714 2.53161 10.4079 2.43592 10.16C2.17688 9.48896 2.03516 8.76027 2.03516 7.99999C2.03516 7.23971 2.17688 6.51101 2.43592 5.83993C2.53161 5.59204 2.76994 5.42857 3.03565 5.42857H4.35163L7.80882 2.17474C7.99558 1.99897 8.26896 1.95102 8.50439 2.05274Z" fill="#686F79"/>
<path d="M11.0376 5.64645C11.2328 5.45118 11.5494 5.45118 11.7447 5.64645L13.3911 7.29289L15.0376 5.64645C15.2328 5.45118 15.5494 5.45118 15.7447 5.64645C15.9399 5.84171 15.9399 6.15829 15.7447 6.35355L14.0982 8L15.7447 9.64645C15.9399 9.84171 15.9399 10.1583 15.7447 10.3536C15.5494 10.5488 15.2328 10.5488 15.0376 10.3536L13.3911 8.70711L11.7447 10.3536C11.5494 10.5488 11.2328 10.5488 11.0376 10.3536C10.8423 10.1583 10.8423 9.84171 11.0376 9.64645L12.684 8L11.0376 6.35355C10.8423 6.15829 10.8423 5.84171 11.0376 5.64645Z" fill="#686F79"/>
<zoom style="dark" value="|:#F5F5F5|:#F5F5F5"/>
</svg>
