<svg width="20" height="20" fill="none" xmlns="http://www.w3.org/2000/svg"><path d="M10 18.75a8.363 8.363 0 0 0 3.371-.686 8.93 8.93 0 0 0 2.797-1.896 8.958 8.958 0 0 0 1.896-2.788A8.424 8.424 0 0 0 18.75 10a8.363 8.363 0 0 0-.686-3.371 8.93 8.93 0 0 0-1.896-2.797 8.93 8.93 0 0 0-2.797-1.896 8.424 8.424 0 0 0-3.38-.686 8.424 8.424 0 0 0-3.38.686 8.959 8.959 0 0 0-2.787 1.896A9.003 9.003 0 0 0 1.936 6.63 8.363 8.363 0 0 0 1.25 10c0 1.195.229 2.322.686 3.38a8.959 8.959 0 0 0 1.896 2.788 8.958 8.958 0 0 0 2.788 1.896 8.424 8.424 0 0 0 3.38.686Zm-1.544-3.792a.664.664 0 0 1-.463-.171.602.602 0 0 1-.19-.455c0-.171.064-.317.19-.437a.63.63 0 0 1 .463-.19h1.09v-4.04h-.944a.652.652 0 0 1-.455-.171.602.602 0 0 1-.189-.455c0-.171.063-.317.19-.437a.62.62 0 0 1 .454-.189h1.664c.229 0 .4.074.515.223.12.149.18.343.18.583v4.487h1.09a.63.63 0 0 1 .463.189c.125.12.188.266.188.437a.602.602 0 0 1-.188.455.664.664 0 0 1-.464.171H8.456Zm1.467-8.012a1.138 1.138 0 0 1-1.158-1.158c0-.326.111-.6.334-.824.229-.228.504-.343.824-.343.326 0 .597.115.815.343.223.223.334.498.334.824 0 .32-.111.595-.334.824a1.09 1.09 0 0 1-.815.334Z" fill="#2884F6"/></svg>